<svg width="25" height="24" viewBox="0 0 25 24" fill="none" xmlns="http://www.w3.org/2000/svg">
<path d="M2.33337 22C2.33337 19.8783 3.17623 17.8434 4.67652 16.3431C6.17681 14.8429 8.21164 14 10.3334 14C12.4551 14 14.4899 14.8429 15.9902 16.3431C17.4905 17.8434 18.3334 19.8783 18.3334 22H16.3334C16.3334 20.4087 15.7012 18.8826 14.576 17.7574C13.4508 16.6321 11.9247 16 10.3334 16C8.74207 16 7.21595 16.6321 6.09073 17.7574C4.96552 18.8826 4.33337 20.4087 4.33337 22H2.33337ZM10.3334 13C7.01837 13 4.33337 10.315 4.33337 7C4.33337 3.685 7.01837 1 10.3334 1C13.6484 1 16.3334 3.685 16.3334 7C16.3334 10.315 13.6484 13 10.3334 13ZM10.3334 11C12.5434 11 14.3334 9.21 14.3334 7C14.3334 4.79 12.5434 3 10.3334 3C8.12337 3 6.33337 4.79 6.33337 7C6.33337 9.21 8.12337 11 10.3334 11ZM18.6174 14.703C20.0227 15.3359 21.2154 16.3612 22.052 17.6557C22.8886 18.9502 23.3335 20.4587 23.3334 22H21.3334C21.3336 20.844 20.9999 19.7125 20.3725 18.7416C19.745 17.7707 18.8505 17.0017 17.7964 16.527L18.6164 14.703H18.6174ZM17.9294 3.413C18.9369 3.8283 19.7983 4.53354 20.4044 5.43923C21.0104 6.34492 21.3338 7.41024 21.3334 8.5C21.3338 9.87233 20.8211 11.1952 19.8959 12.2088C18.9708 13.2224 17.7 13.8535 16.3334 13.978V11.965C17.0743 11.8589 17.7617 11.518 18.2947 10.9925C18.8276 10.4669 19.1781 9.78432 19.2945 9.04493C19.411 8.30555 19.2874 7.5483 18.9418 6.88435C18.5962 6.22041 18.0468 5.68475 17.3744 5.356L17.9294 3.413Z" fill="#FFA800"/>
</svg>
