<svg width="25" height="24" viewBox="0 0 25 24" fill="none" xmlns="http://www.w3.org/2000/svg">
<path d="M17.6667 3H21.6667C21.9319 3 22.1863 3.10536 22.3738 3.29289C22.5613 3.48043 22.6667 3.73478 22.6667 4V20C22.6667 20.2652 22.5613 20.5196 22.3738 20.7071C22.1863 20.8946 21.9319 21 21.6667 21H3.66669C3.40147 21 3.14712 20.8946 2.95958 20.7071C2.77204 20.5196 2.66669 20.2652 2.66669 20V4C2.66669 3.73478 2.77204 3.48043 2.95958 3.29289C3.14712 3.10536 3.40147 3 3.66669 3H7.66669V1H9.66669V3H15.6667V1H17.6667V3ZM4.66669 9V19H20.6667V9H4.66669ZM6.66669 13H11.6667V17H6.66669V13Z" fill="#FFA800"/>
</svg>
