<svg width="14" height="14" viewBox="0 0 14 14" fill="none" xmlns="http://www.w3.org/2000/svg">
<path d="M10.3333 1.66659H13C13.1768 1.66659 13.3464 1.73682 13.4714 1.86185C13.5964 1.98687 13.6666 2.15644 13.6666 2.33325V12.9999C13.6666 13.1767 13.5964 13.3463 13.4714 13.4713C13.3464 13.5963 13.1768 13.6666 13 13.6666H0.99998C0.823169 13.6666 0.653599 13.5963 0.528575 13.4713C0.403551 13.3463 0.333313 13.1767 0.333313 12.9999V2.33325C0.333313 2.15644 0.403551 1.98687 0.528575 1.86185C0.653599 1.73682 0.823169 1.66659 0.99998 1.66659H3.66665V0.333252H4.99998V1.66659H8.99998V0.333252H10.3333V1.66659ZM12.3333 6.99992H1.66665V12.3333H12.3333V6.99992ZM8.99998 2.99992H4.99998V4.33325H3.66665V2.99992H1.66665V5.66659H12.3333V2.99992H10.3333V4.33325H8.99998V2.99992ZM2.99998 8.33325H4.33331V9.66659H2.99998V8.33325ZM6.33331 8.33325H7.66665V9.66659H6.33331V8.33325ZM9.66665 8.33325H11V9.66659H9.66665V8.33325Z" fill="#878787"/>
</svg>
