<svg width="14" height="14" viewBox="0 0 14 14" fill="none" xmlns="http://www.w3.org/2000/svg">
<path d="M3.86065 12.8826L0.333321 13.6666L1.11732 10.1393C0.601008 9.17351 0.331672 8.09502 0.333321 6.99992C0.333321 3.31792 3.31799 0.333252 6.99999 0.333252C10.682 0.333252 13.6667 3.31792 13.6667 6.99992C13.6667 10.6819 10.682 13.6666 6.99999 13.6666C5.90489 13.6682 4.8264 13.3989 3.86065 12.8826ZM4.05399 11.4739L4.48932 11.7073C5.26169 12.12 6.12425 12.3351 6.99999 12.3333C8.05482 12.3333 9.08597 12.0205 9.96303 11.4344C10.8401 10.8484 11.5237 10.0154 11.9273 9.0409C12.331 8.06636 12.4366 6.994 12.2308 5.95944C12.0251 4.92487 11.5171 3.97456 10.7712 3.22868C10.0253 2.4828 9.07503 1.97485 8.04047 1.76906C7.0059 1.56328 5.93355 1.66889 4.95901 2.07256C3.98447 2.47623 3.15152 3.15982 2.56548 4.03688C1.97945 4.91394 1.66665 5.94509 1.66665 6.99992C1.66665 7.88925 1.88332 8.74525 2.29332 9.51059L2.52599 9.94592L2.08932 11.9106L4.05399 11.4739Z" fill="#878787"/>
</svg>
