<svg width="28" height="23" viewBox="0 0 28 23" fill="none" xmlns="http://www.w3.org/2000/svg">
<path d="M27.5493 2.95725C26.5314 3.40751 25.452 3.70322 24.3467 3.83458C25.5117 3.13783 26.3836 2.04127 26.8 0.749251C25.7067 1.39992 24.508 1.85592 23.2587 2.10258C22.4195 1.20469 21.3072 0.609202 20.0946 0.408697C18.8821 0.208193 17.6373 0.413906 16.5537 0.993855C15.4701 1.5738 14.6085 2.4955 14.1028 3.61564C13.5971 4.73579 13.4757 5.99162 13.7573 7.18792C11.5402 7.07679 9.37112 6.50062 7.39106 5.4968C5.411 4.49299 3.66418 3.08398 2.26401 1.36125C1.7684 2.21252 1.50795 3.18022 1.50934 4.16525C1.50934 6.09858 2.49334 7.80658 3.98934 8.80659C3.10402 8.77871 2.23819 8.53963 1.46401 8.10925V8.17858C1.46428 9.46618 1.90983 10.7141 2.72514 11.7107C3.54044 12.7073 4.67532 13.3912 5.93734 13.6466C5.1155 13.8693 4.25375 13.9021 3.41734 13.7426C3.77317 14.8509 4.46668 15.8202 5.4008 16.5147C6.33491 17.2093 7.46285 17.5943 8.62668 17.6159C7.46998 18.5244 6.14558 19.1959 4.72918 19.5921C3.31279 19.9884 1.83218 20.1016 0.372009 19.9253C2.92094 21.5645 5.88814 22.4347 8.91868 22.4319C19.176 22.4319 24.7853 13.9346 24.7853 6.56525C24.7853 6.32525 24.7787 6.08258 24.768 5.84525C25.8598 5.05614 26.8021 4.07861 27.5507 2.95858L27.5493 2.95725Z" fill="#5243C2"/>
</svg>
